<svg width="28" height="28" viewBox="0 0 28 28" fill="none" xmlns="http://www.w3.org/2000/svg">
<path fill-rule="evenodd" clip-rule="evenodd" d="M22.4 3.73333H25.2C25.9426 3.73333 26.6548 4.02833 27.1799 4.55343C27.705 5.07854 28 5.79073 28 6.53333V25.2C28 25.9426 27.705 26.6548 27.1799 27.1799C26.6548 27.705 25.9426 28 25.2 28H2.8C2.05739 28 1.3452 27.705 0.820101 27.1799C0.294999 26.6548 0 25.9426 0 25.2L0 6.53333C0 5.79073 0.294999 5.07854 0.820101 4.55343C1.3452 4.02833 2.05739 3.73333 2.8 3.73333H5.6V0H7.46667V3.73333H20.5333V0H22.4V3.73333ZM11.2 14.9333H5.6V13.0667H11.2V14.9333ZM22.4 13.0667H16.8V14.9333H22.4V13.0667ZM11.2 20.5333H5.6V18.6667H11.2V20.5333ZM16.8 20.5333H22.4V18.6667H16.8V20.5333Z" fill="#6B7280"/>
</svg>
