<svg width="12" height="22" viewBox="0 0 12 22" fill="none" xmlns="http://www.w3.org/2000/svg">
<path d="M10.9754 19.8707L2.90611 11.672C2.72914 11.4931 2.62987 11.2516 2.62987 11C2.62987 10.7483 2.72914 10.5069 2.90611 10.328L10.9736 2.12924C11.1505 1.94924 11.2496 1.70697 11.2496 1.45461C11.2496 1.20225 11.1505 0.959984 10.9736 0.779987C10.8872 0.691352 10.7839 0.620911 10.6699 0.572814C10.5558 0.524718 10.4333 0.499939 10.3095 0.499939C10.1857 0.499939 10.0632 0.524718 9.94911 0.572814C9.83505 0.620911 9.73177 0.691352 9.64536 0.779987L1.57786 8.97698C1.04774 9.5169 0.750732 10.2433 0.750732 11C0.750732 11.7566 1.04774 12.4831 1.57786 13.023L9.64536 21.22C9.7318 21.3089 9.83519 21.3796 9.94941 21.4278C10.0636 21.4761 10.1864 21.5009 10.3104 21.5009C10.4344 21.5009 10.5571 21.4761 10.6713 21.4278C10.7855 21.3796 10.8889 21.3089 10.9754 21.22C11.1522 21.04 11.2514 20.7977 11.2514 20.5454C11.2514 20.293 11.1522 20.0507 10.9754 19.8707Z" fill="#F76707"/>
</svg>
