<svg width="22" height="22" viewBox="0 0 22 22" fill="none" xmlns="http://www.w3.org/2000/svg">
<path d="M1.66667 12.1667H8.66667C9.30833 12.1667 9.83333 11.6417 9.83333 11V1.66667C9.83333 1.025 9.30833 0.5 8.66667 0.5H1.66667C1.025 0.5 0.5 1.025 0.5 1.66667V11C0.5 11.6417 1.025 12.1667 1.66667 12.1667ZM1.66667 21.5H8.66667C9.30833 21.5 9.83333 20.975 9.83333 20.3333V15.6667C9.83333 15.025 9.30833 14.5 8.66667 14.5H1.66667C1.025 14.5 0.5 15.025 0.5 15.6667V20.3333C0.5 20.975 1.025 21.5 1.66667 21.5ZM13.3333 21.5H20.3333C20.975 21.5 21.5 20.975 21.5 20.3333V11C21.5 10.3583 20.975 9.83333 20.3333 9.83333H13.3333C12.6917 9.83333 12.1667 10.3583 12.1667 11V20.3333C12.1667 20.975 12.6917 21.5 13.3333 21.5ZM12.1667 1.66667V6.33333C12.1667 6.975 12.6917 7.5 13.3333 7.5H20.3333C20.975 7.5 21.5 6.975 21.5 6.33333V1.66667C21.5 1.025 20.975 0.5 20.3333 0.5H13.3333C12.6917 0.5 12.1667 1.025 12.1667 1.66667Z" fill="#01B1AF"/>
</svg>
