<svg width="24" height="24" viewBox="0 0 24 24" fill="none" xmlns="http://www.w3.org/2000/svg">
<path d="M15.5816 11.125L14.5316 12.1983C13.6916 13.0383 13.1666 13.75 13.1666 15.5H10.8333V14.9167C10.8333 13.6217 11.3583 12.455 12.1983 11.615L13.6449 10.145C14.0766 9.725 14.3333 9.14167 14.3333 8.5C14.3333 7.88116 14.0874 7.28767 13.6498 6.85008C13.2122 6.4125 12.6188 6.16667 11.9999 6.16667C11.3811 6.16667 10.7876 6.4125 10.35 6.85008C9.91242 7.28767 9.66658 7.88116 9.66658 8.5H7.33325C7.33325 7.26232 7.82492 6.07534 8.70009 5.20017C9.57526 4.325 10.7622 3.83333 11.9999 3.83333C13.2376 3.83333 14.4246 4.325 15.2998 5.20017C16.1749 6.07534 16.6666 7.26232 16.6666 8.5C16.6649 9.48378 16.275 10.4271 15.5816 11.125ZM13.1666 20.1667H10.8333V17.8333H13.1666M11.9999 0.333334C10.4678 0.333334 8.95074 0.635101 7.53528 1.22141C6.11981 1.80771 4.83369 2.66707 3.75034 3.75042C1.56242 5.93835 0.333252 8.90581 0.333252 12C0.333252 15.0942 1.56242 18.0617 3.75034 20.2496C4.83369 21.3329 6.11981 22.1923 7.53528 22.7786C8.95074 23.3649 10.4678 23.6667 11.9999 23.6667C15.0941 23.6667 18.0616 22.4375 20.2495 20.2496C22.4374 18.0617 23.6666 15.0942 23.6666 12C23.6666 5.54833 18.4166 0.333334 11.9999 0.333334Z" fill="#6B7280"/>
</svg>
