<svg width="20" height="20" viewBox="0 0 20 20" fill="none" xmlns="http://www.w3.org/2000/svg">
<path d="M9.125 18.1667C9.125 17.9346 9.21719 17.7121 9.38128 17.548C9.54538 17.3839 9.76794 17.2917 10 17.2917H17C17.0774 17.2917 17.1515 17.2609 17.2062 17.2062C17.2609 17.1516 17.2917 17.0774 17.2917 17V3.00001C17.2917 2.92266 17.2609 2.84847 17.2062 2.79377C17.1515 2.73907 17.0774 2.70834 17 2.70834H10C9.76794 2.70834 9.54538 2.61616 9.38128 2.45206C9.21719 2.28797 9.125 2.06541 9.125 1.83334C9.125 1.60128 9.21719 1.37872 9.38128 1.21462C9.54538 1.05053 9.76794 0.958344 10 0.958344H17C18.127 0.958344 19.0417 1.87301 19.0417 3.00001V17C19.0417 17.5415 18.8266 18.0608 18.4437 18.4437C18.0608 18.8266 17.5415 19.0417 17 19.0417H10C9.76794 19.0417 9.54538 18.9495 9.38128 18.7854C9.21719 18.6213 9.125 18.3987 9.125 18.1667Z" fill="#6B7280"/>
<path d="M14.2141 11.3008C14.2141 11.6103 14.0911 11.907 13.8724 12.1258C13.6536 12.3446 13.3568 12.4675 13.0474 12.4675H7.38206C7.35484 12.8821 7.3214 13.2966 7.28173 13.7112L7.24673 14.067C7.2337 14.2011 7.18851 14.3301 7.11499 14.443C7.04148 14.5559 6.94181 14.6494 6.82445 14.7156C6.70708 14.7818 6.57548 14.8187 6.44082 14.8232C6.30616 14.8277 6.1724 14.7996 6.0509 14.7413C3.91763 13.7202 1.98679 12.3214 0.351733 10.6125L0.316733 10.5763C0.166299 10.4199 0.0822754 10.2112 0.0822754 9.99417C0.0822754 9.77711 0.166299 9.56848 0.316733 9.41201L0.351733 9.37584C1.98679 7.66698 3.91763 6.26816 6.0509 5.24701C6.1724 5.18876 6.30616 5.16069 6.44082 5.16517C6.57548 5.16964 6.70708 5.20654 6.82445 5.27272C6.94181 5.3389 7.04148 5.43242 7.11499 5.54533C7.18851 5.65825 7.2337 5.78723 7.24673 5.92134L7.28173 6.27717C7.3214 6.69095 7.35484 7.10551 7.38206 7.52084H13.0474C13.3568 7.52084 13.6536 7.64376 13.8724 7.86255C14.0911 8.08134 14.2141 8.37809 14.2141 8.68751V11.3008Z" fill="#6B7280"/>
</svg>
