<svg width="26" height="26" viewBox="0 0 26 26" fill="none" xmlns="http://www.w3.org/2000/svg">
<path d="M11.6874 13C11.6874 13.3481 11.8257 13.6819 12.0718 13.9281C12.318 14.1742 12.6518 14.3125 12.9999 14.3125C13.348 14.3125 13.6818 14.1742 13.928 13.9281C14.1741 13.6819 14.3124 13.3481 14.3124 13C14.3124 12.6519 14.1741 12.3181 13.928 12.0719C13.6818 11.8258 13.348 11.6875 12.9999 11.6875C12.6518 11.6875 12.318 11.8258 12.0718 12.0719C11.8257 12.3181 11.6874 12.6519 11.6874 13ZM17.1562 13C17.1562 13.3481 17.2944 13.6819 17.5406 13.9281C17.7867 14.1742 18.1206 14.3125 18.4687 14.3125C18.8168 14.3125 19.1506 14.1742 19.3967 13.9281C19.6429 13.6819 19.7812 13.3481 19.7812 13C19.7812 12.6519 19.6429 12.3181 19.3967 12.0719C19.1506 11.8258 18.8168 11.6875 18.4687 11.6875C18.1206 11.6875 17.7867 11.8258 17.5406 12.0719C17.2944 12.3181 17.1562 12.6519 17.1562 13ZM6.21866 13C6.21866 13.3481 6.35694 13.6819 6.60308 13.9281C6.84922 14.1742 7.18306 14.3125 7.53116 14.3125C7.87926 14.3125 8.2131 14.1742 8.45924 13.9281C8.70538 13.6819 8.84366 13.3481 8.84366 13C8.84366 12.6519 8.70538 12.3181 8.45924 12.0719C8.2131 11.8258 7.87926 11.6875 7.53116 11.6875C7.18306 11.6875 6.84922 11.8258 6.60308 12.0719C6.35694 12.3181 6.21866 12.6519 6.21866 13ZM24.2983 8.25312C23.6804 6.78477 22.7944 5.4668 21.6651 4.33477C20.5437 3.20931 19.2125 2.3147 17.7468 1.70156C16.2429 1.06992 14.646 0.75 12.9999 0.75H12.9452C11.2882 0.758203 9.68311 1.08633 8.17374 1.73164C6.72059 2.35107 5.40183 3.24727 4.29093 4.37031C3.17257 5.49961 2.29483 6.81211 1.6878 8.275C1.0589 9.78984 0.741708 11.4004 0.749911 13.0574C0.759189 14.9564 1.20844 16.8273 2.06241 18.5234V22.6797C2.06241 23.0133 2.19493 23.3332 2.43082 23.5691C2.6667 23.805 2.98663 23.9375 3.32022 23.9375H7.47921C9.17532 24.7915 11.0463 25.2407 12.9452 25.25H13.0026C14.6405 25.25 16.2292 24.9328 17.7249 24.3121C19.1832 23.7063 20.5095 22.8221 21.6296 21.709C22.7589 20.5906 23.6476 19.2836 24.2683 17.8262C24.9136 16.3168 25.2417 14.7117 25.2499 13.0547C25.2581 11.3895 24.9355 9.77344 24.2983 8.25312ZM20.1667 20.2297C18.2499 22.1273 15.7069 23.1719 12.9999 23.1719H12.9534C11.3046 23.1637 9.66671 22.7535 8.22022 21.9824L7.99054 21.8594H4.14054V18.0094L4.01749 17.7797C3.2464 16.3332 2.83624 14.6953 2.82804 13.0465C2.8171 10.3203 3.8589 7.76094 5.77022 5.8332C7.67882 3.90547 10.23 2.83906 12.9562 2.82812H13.0026C14.3698 2.82812 15.696 3.09336 16.9456 3.61836C18.1651 4.12969 19.2589 4.86523 20.1995 5.80586C21.1374 6.74375 21.8757 7.84023 22.387 9.05977C22.9175 10.323 23.1827 11.6629 23.1773 13.0465C23.1608 15.7699 22.0917 18.3211 20.1667 20.2297Z" fill="#6B7280"/>
</svg>
