<svg width="22" height="25" viewBox="0 0 22 25" fill="none" xmlns="http://www.w3.org/2000/svg">
<path d="M4.50052 1.81517C4.64761 1.63962 4.72 1.41339 4.70216 1.18506C4.68432 0.95673 4.57767 0.744495 4.4051 0.593918C4.23253 0.443341 4.00781 0.366426 3.77916 0.379685C3.55052 0.392944 3.33619 0.49532 3.18218 0.664835L1.67485 2.3915C0.82013 3.371 0.336961 4.6198 0.309851 5.9195L0.243351 9.09167C0.238555 9.32373 0.326143 9.5482 0.486846 9.71568C0.647549 9.88317 0.868203 9.97996 1.10027 9.98475C1.33233 9.98955 1.5568 9.90196 1.72428 9.74126C1.89177 9.58055 1.98856 9.3599 1.99335 9.12783L2.05868 5.95683C2.0774 5.06752 2.40819 4.21309 2.99318 3.543L4.50052 1.81517Z" fill="#6B7280"/>
<path fill-rule="evenodd" clip-rule="evenodd" d="M4.27652 7.98333C4.35487 6.73516 4.90596 5.56376 5.8176 4.70761C6.72924 3.85146 7.93289 3.37492 9.18352 3.375H9.83336V2.5C9.83336 2.19058 9.95627 1.89383 10.1751 1.67504C10.3939 1.45625 10.6906 1.33333 11 1.33333C11.3094 1.33333 11.6062 1.45625 11.825 1.67504C12.0438 1.89383 12.1667 2.19058 12.1667 2.5V3.375H12.8165C14.0672 3.37492 15.2708 3.85146 16.1824 4.70761C17.0941 5.56376 17.6452 6.73516 17.7235 7.98333L17.9814 12.1063C18.081 13.6781 18.6087 15.1926 19.5074 16.486C19.6933 16.7532 19.8069 17.064 19.8371 17.3882C19.8674 17.7123 19.8132 18.0388 19.6799 18.3358C19.5466 18.6328 19.3387 18.8903 19.0764 19.0832C18.8142 19.2761 18.5064 19.3978 18.1832 19.4365L14.2084 19.9125V21.1667C14.2084 22.0176 13.8703 22.8336 13.2687 23.4353C12.667 24.037 11.8509 24.375 11 24.375C10.1491 24.375 9.33307 24.037 8.73139 23.4353C8.12971 22.8336 7.79169 22.0176 7.79169 21.1667V19.9125L3.81686 19.4353C3.4938 19.3965 3.18628 19.2748 2.92418 19.082C2.66207 18.8892 2.45429 18.6318 2.32102 18.335C2.18775 18.0382 2.13352 17.7119 2.1636 17.3879C2.19368 17.0639 2.30705 16.7532 2.49269 16.486C3.39131 15.1926 3.91902 13.6781 4.01869 12.1063L4.27652 7.98333ZM9.54169 21.1667C9.54169 21.5534 9.69533 21.9244 9.96883 22.1979C10.2423 22.4714 10.6132 22.625 11 22.625C11.3868 22.625 11.7577 22.4714 12.0312 22.1979C12.3047 21.9244 12.4584 21.5534 12.4584 21.1667V20.2917H9.54169V21.1667Z" fill="#6B7280"/>
<path d="M17.5835 0.580833C17.4087 0.733402 17.3017 0.949139 17.286 1.18061C17.2702 1.41208 17.347 1.64032 17.4995 1.81517L19.0069 3.54183C19.5917 4.21239 19.9221 5.06726 19.9402 5.95683L20.0067 9.12667C20.0091 9.24157 20.034 9.35489 20.0802 9.46014C20.1264 9.56539 20.1928 9.66052 20.2758 9.74009C20.3587 9.81966 20.4565 9.88212 20.5635 9.9239C20.6706 9.96568 20.7849 9.98596 20.8998 9.98358C21.0147 9.98121 21.128 9.95622 21.2332 9.91006C21.3385 9.86389 21.4336 9.79745 21.5132 9.71451C21.5928 9.63158 21.6552 9.53379 21.697 9.42672C21.7388 9.31966 21.7591 9.20541 21.7567 9.0905L21.6902 5.9195C21.6631 4.6198 21.1799 3.37099 20.3252 2.3915L18.8179 0.664833C18.6653 0.490052 18.4495 0.383019 18.2181 0.367267C17.9866 0.351515 17.7584 0.428334 17.5835 0.580833Z" fill="#6B7280"/>
</svg>
