<svg width="26" height="28" viewBox="0 0 26 28" fill="none" xmlns="http://www.w3.org/2000/svg">
<path fill-rule="evenodd" clip-rule="evenodd" d="M19.2061 2.142L15.2701 8.312H21.4361L23.6041 4.976C23.9799 4.39252 24.1086 3.68365 23.9617 3.00533C23.8149 2.32702 23.4046 1.73481 22.8211 1.359C22.2376 0.983188 21.5288 0.854553 20.8504 1.00139C20.1721 1.14824 19.5819 1.55852 19.2061 2.142ZM1.13411 17.696L0.554107 12.536C0.522871 12.2563 0.551004 11.9732 0.636668 11.7052C0.722331 11.4371 0.863597 11.1902 1.05123 10.9804C1.23886 10.7707 1.46864 10.603 1.72555 10.4881C1.98245 10.3733 2.2607 10.3139 2.54211 10.314H23.4581C23.7397 10.3139 24.0181 10.3733 24.2752 10.4883C24.5323 10.6032 24.7621 10.7712 24.9498 10.9811C25.1375 11.1911 25.2787 11.4383 25.3642 11.7066C25.4497 11.9748 25.4776 12.2582 25.4461 12.538L24.8661 17.698C24.7226 18.9736 24.2743 20.196 23.5589 21.2619C22.8436 22.3278 21.8822 23.2059 20.7561 23.822C21.0681 24.436 21.2881 25.108 21.3961 25.822C21.4309 26.0543 21.4152 26.2915 21.35 26.5172C21.2847 26.7429 21.1715 26.9519 21.0181 27.1298C20.8647 27.3077 20.6746 27.4504 20.461 27.5481C20.2473 27.6459 20.0151 27.6963 19.7801 27.696H6.22011C5.98516 27.6963 5.75292 27.6459 5.53926 27.5481C5.3256 27.4504 5.13556 27.3077 4.98213 27.1298C4.8287 26.9519 4.71549 26.7429 4.65025 26.5172C4.58501 26.2915 4.56927 26.0543 4.60411 25.822C4.70934 25.1254 4.92541 24.4502 5.24411 23.822C4.11771 23.2057 3.15621 22.3273 2.44085 21.261C1.72549 20.1948 1.27729 18.972 1.13411 17.696ZM14.2501 15.146C14.2501 14.8145 14.1184 14.4965 13.884 14.2621C13.6496 14.0277 13.3316 13.896 13.0001 13.896C12.6686 13.896 12.3506 14.0277 12.1162 14.2621C11.8818 14.4965 11.7501 14.8145 11.7501 15.146V17.754H9.14211C8.81059 17.754 8.49264 17.8857 8.25822 18.1201C8.0238 18.3545 7.89211 18.6725 7.89211 19.004C7.89211 19.3355 8.0238 19.6535 8.25822 19.8879C8.49264 20.1223 8.81059 20.254 9.14211 20.254H11.7501V22.864C11.7501 23.1955 11.8818 23.5135 12.1162 23.7479C12.3506 23.9823 12.6686 24.114 13.0001 24.114C13.3316 24.114 13.6496 23.9823 13.884 23.7479C14.1184 23.5135 14.2501 23.1955 14.2501 22.864V20.256H16.8581C17.1896 20.256 17.5076 20.1243 17.742 19.8899C17.9764 19.6555 18.1081 19.3375 18.1081 19.006C18.1081 18.6745 17.9764 18.3565 17.742 18.1221C17.5076 17.8877 17.1896 17.756 16.8581 17.756H14.2501V15.142V15.146Z" fill="#6B7280"/>
</svg>
