<svg width="22" height="22" viewBox="0 0 22 22" fill="none" xmlns="http://www.w3.org/2000/svg">
<path d="M20.275 21.5C17.8444 21.5 15.4384 20.975 13.0568 19.925C10.6753 18.875 8.51189 17.3778 6.56667 15.4333C4.62144 13.4889 3.12422 11.3306 2.075 8.95833C1.02578 6.58611 0.500778 4.175 0.5 1.725V0.5H7.38333L8.4625 6.3625L5.1375 9.71667C5.56528 10.475 6.04167 11.1944 6.56667 11.875C7.09167 12.5556 7.65555 13.1875 8.25833 13.7708C8.82222 14.3347 9.43978 14.8745 10.111 15.3902C10.7822 15.9058 11.5063 16.3869 12.2833 16.8333L15.6667 13.45L21.5 14.6458V21.5H20.275Z" fill="#6B7280"/>
</svg>
