<svg width="24" height="20" viewBox="0 0 24 20" fill="none" xmlns="http://www.w3.org/2000/svg">
<path fill-rule="evenodd" clip-rule="evenodd" d="M2.66659 0.666656C2.04775 0.666656 1.45425 0.912489 1.01667 1.35007C0.579084 1.78766 0.333252 2.38115 0.333252 2.99999V17C0.333252 17.6188 0.579084 18.2123 1.01667 18.6499C1.45425 19.0875 2.04775 19.3333 2.66659 19.3333H21.3333C21.9521 19.3333 22.5456 19.0875 22.9832 18.6499C23.4208 18.2123 23.6666 17.6188 23.6666 17V2.99999C23.6666 2.38115 23.4208 1.78766 22.9832 1.35007C22.5456 0.912489 21.9521 0.666656 21.3333 0.666656H2.66659ZM14.3333 6.49999C14.3333 6.19057 14.4562 5.89382 14.675 5.67503C14.8938 5.45624 15.1905 5.33332 15.4999 5.33332H18.9999C19.3093 5.33332 19.6061 5.45624 19.8249 5.67503C20.0437 5.89382 20.1666 6.19057 20.1666 6.49999C20.1666 6.80941 20.0437 7.10615 19.8249 7.32495C19.6061 7.54374 19.3093 7.66666 18.9999 7.66666H15.4999C15.1905 7.66666 14.8938 7.54374 14.675 7.32495C14.4562 7.10615 14.3333 6.80941 14.3333 6.49999ZM14.3333 9.99999C14.3333 9.69057 14.4562 9.39382 14.675 9.17503C14.8938 8.95624 15.1905 8.83332 15.4999 8.83332H18.9999C19.3093 8.83332 19.6061 8.95624 19.8249 9.17503C20.0437 9.39382 20.1666 9.69057 20.1666 9.99999C20.1666 10.3094 20.0437 10.6062 19.8249 10.8249C19.6061 11.0437 19.3093 11.1667 18.9999 11.1667H15.4999C15.1905 11.1667 14.8938 11.0437 14.675 10.8249C14.4562 10.6062 14.3333 10.3094 14.3333 9.99999ZM14.3333 13.5C14.3333 13.1906 14.4562 12.8938 14.675 12.675C14.8938 12.4562 15.1905 12.3333 15.4999 12.3333H18.9999C19.3093 12.3333 19.6061 12.4562 19.8249 12.675C20.0437 12.8938 20.1666 13.1906 20.1666 13.5C20.1666 13.8094 20.0437 14.1062 19.8249 14.3249C19.6061 14.5437 19.3093 14.6667 18.9999 14.6667H15.4999C15.1905 14.6667 14.8938 14.5437 14.675 14.3249C14.4562 14.1062 14.3333 13.8094 14.3333 13.5ZM4.99992 7.66666C4.99992 6.7384 5.36867 5.84816 6.02504 5.19178C6.68142 4.53541 7.57166 4.16666 8.49992 4.16666C9.42818 4.16666 10.3184 4.53541 10.9748 5.19178C11.6312 5.84816 11.9999 6.7384 11.9999 7.66666C11.9999 8.59491 11.6312 9.48515 10.9748 10.1415C10.3184 10.7979 9.42818 11.1667 8.49992 11.1667C7.57166 11.1667 6.68142 10.7979 6.02504 10.1415C5.36867 9.48515 4.99992 8.59491 4.99992 7.66666ZM7.26558 12.3333C6.53085 12.3331 5.81467 12.564 5.21852 12.9935C4.62238 13.423 4.17651 14.0292 3.94408 14.7262L3.89275 14.8813L3.88809 14.8953C3.83909 15.0423 3.82392 15.0902 3.83909 15.1228C3.84609 15.138 3.86242 15.1497 3.88342 15.1683C3.92075 15.1975 3.97675 15.243 4.05375 15.3492C4.16185 15.499 4.304 15.6211 4.4685 15.7052C4.633 15.7894 4.81514 15.8333 4.99992 15.8333H11.9999C12.1847 15.8333 12.3668 15.7894 12.5313 15.7052C12.6958 15.6211 12.838 15.499 12.9461 15.3492C12.9933 15.2805 13.0508 15.2196 13.1164 15.1683C13.1386 15.1497 13.1526 15.138 13.1608 15.1217C13.1771 15.0902 13.1608 15.0423 13.1118 14.8953L13.1071 14.8813L13.0558 14.7262C12.8234 14.0293 12.3777 13.4233 11.7818 12.9938C11.1859 12.5644 10.47 12.3333 9.73542 12.3333H7.26558Z" fill="#6B7280"/>
</svg>
