<svg width="28" height="28" viewBox="0 0 28 28" fill="none" xmlns="http://www.w3.org/2000/svg">
<path d="M18.8961 17.6763H21.3015C21.3914 17.6763 21.4777 17.6406 21.5412 17.577C21.6048 17.5134 21.6406 17.4272 21.6406 17.3373C21.6406 17.2473 21.6048 17.1611 21.5412 17.0975C21.4777 17.0339 21.3914 16.9982 21.3015 16.9982H18.8961C18.8062 16.9982 18.72 17.0339 18.6564 17.0975C18.5928 17.1611 18.5571 17.2473 18.5571 17.3373C18.5571 17.4272 18.5928 17.5134 18.6564 17.577C18.72 17.6406 18.8062 17.6763 18.8961 17.6763ZM24.3841 7.32901H15.8472V14.035H24.3841V7.32901ZM23.7646 13.4663H16.4597V7.90082H23.7646V13.4663ZM9.96237 7.55213H8.57506V8.93945H7.18774V10.3268H8.57506V11.7141H9.96237V10.3268H11.3492V8.93945H9.96237V7.55213Z" fill="#6B7280"/>
<path d="M18.8959 9.76632H21.3013C21.3912 9.76632 21.4775 9.7306 21.5411 9.66701C21.6047 9.60343 21.6404 9.51718 21.6404 9.42726C21.6404 9.33733 21.6047 9.25109 21.5411 9.1875C21.4775 9.12392 21.3912 9.0882 21.3013 9.0882H18.8959C18.806 9.0882 18.7198 9.12392 18.6562 9.1875C18.5926 9.25109 18.5569 9.33733 18.5569 9.42726C18.5569 9.51718 18.5926 9.60343 18.6562 9.66701C18.7198 9.7306 18.806 9.76632 18.8959 9.76632Z" fill="#6B7280"/>
<path d="M24.3303 0.239319H3.95596C1.95964 0.239319 0.335205 1.86376 0.335205 3.86094V24.2344C0.335205 26.2316 1.95964 27.8561 3.95596 27.8561H24.3303C26.3271 27.8561 27.9515 26.2321 27.9515 24.2344V3.86094C27.9515 1.86419 26.3266 0.239319 24.3303 0.239319ZM4.04783 4.97044V9.52744H3.36577C3.33507 9.5275 3.30467 9.5215 3.2763 9.50978C3.24792 9.49806 3.22215 9.48085 3.20044 9.45915C3.17874 9.43744 3.16153 9.41166 3.14981 9.38329C3.13809 9.35492 3.13209 9.32451 3.13214 9.29382V3.41338C3.13214 3.21432 3.28046 3.05244 3.48433 3.05244H6.49739C6.70039 3.05244 6.84958 3.21388 6.84958 3.41294V3.75813H11.5081C11.6376 3.75813 11.7417 3.86269 11.7417 3.99088V5.31344H7.76527V4.96738C7.76527 4.76876 7.61696 4.60732 7.41221 4.60732H4.40089C4.19658 4.60732 4.04783 4.77094 4.04783 4.97044ZM13.3395 12.5199H5.19802C5.16735 12.5202 5.13694 12.5143 5.10854 12.5027C5.08015 12.4911 5.05434 12.474 5.03261 12.4523C5.01088 12.4307 4.99367 12.405 4.98196 12.3766C4.97025 12.3483 4.96428 12.3179 4.96439 12.2872V6.40676C4.96439 6.20769 5.11271 6.04582 5.31614 6.04582H8.32833C8.53221 6.04582 8.68139 6.20726 8.68139 6.40588V6.75107H13.3395C13.469 6.75107 13.5731 6.85563 13.5731 6.98382V12.2868C13.5732 12.3175 13.5672 12.3479 13.5555 12.3763C13.5437 12.4046 13.5265 12.4304 13.5047 12.4521C13.4829 12.4737 13.4571 12.4908 13.4286 12.5024C13.4002 12.514 13.3702 12.5202 13.3395 12.5199ZM24.9962 24.4576H15.2373V6.70076H24.9962V24.4576Z" fill="#6B7280"/>
<path d="M24.3841 15.2386H15.8472V21.9454H24.3841V15.2386ZM23.769 21.3732H16.4649V15.8091H23.769V21.3732Z" fill="#6B7280"/>
</svg>
