<svg width="26" height="26" viewBox="0 0 26 26" fill="none" xmlns="http://www.w3.org/2000/svg">
<path fill-rule="evenodd" clip-rule="evenodd" d="M10.92 0.666687C9.29536 0.666898 7.69406 1.05315 6.24802 1.79362C4.80197 2.53408 3.55258 3.60756 2.60278 4.9256C1.65299 6.24364 1.02999 7.76851 0.785112 9.37455C0.540238 10.9806 0.680503 12.6218 1.19435 14.163C1.70819 15.7042 2.58091 17.1013 3.74058 18.239C4.90025 19.3768 6.31369 20.2227 7.86441 20.7071C9.41513 21.1914 11.0588 21.3003 12.6598 21.0249C14.2609 20.7494 15.7736 20.0974 17.0733 19.1227C17.1506 19.3493 17.2786 19.5613 17.46 19.7413L22.58 24.8613C22.8842 25.1561 23.2922 25.3194 23.7158 25.3159C24.1394 25.3125 24.5447 25.1425 24.8441 24.8428C25.1434 24.5431 25.3129 24.1376 25.3159 23.714C25.3189 23.2904 25.1551 22.8826 24.86 22.5787L19.74 17.4587C19.5665 17.2845 19.3553 17.1527 19.1226 17.0734C20.2655 15.55 20.9616 13.7385 21.1328 11.8418C21.304 9.94514 20.9436 8.03826 20.092 6.33489C19.2404 4.63152 17.9312 3.19898 16.3112 2.19784C14.6912 1.19669 12.8244 0.666501 10.92 0.666687ZM3.2533 10.92C3.2533 9.91322 3.45161 8.91628 3.83689 7.98611C4.22218 7.05595 4.7869 6.21078 5.49882 5.49887C6.21073 4.78695 7.0559 4.22223 7.98606 3.83694C8.91623 3.45166 9.91317 3.25335 10.92 3.25335C11.9268 3.25335 12.9237 3.45166 13.8539 3.83694C14.784 4.22223 15.6292 4.78695 16.3411 5.49887C17.053 6.21078 17.6178 7.05595 18.003 7.98611C18.3883 8.91628 18.5866 9.91322 18.5866 10.92C18.5866 12.9533 17.7789 14.9034 16.3411 16.3412C14.9033 17.7789 12.9533 18.5867 10.92 18.5867C8.88664 18.5867 6.9366 17.7789 5.49882 16.3412C4.06104 14.9034 3.2533 12.9533 3.2533 10.92Z" fill="#01B1AF"/>
</svg>
