<svg width="24" height="24" viewBox="0 0 24 24" fill="none" xmlns="http://www.w3.org/2000/svg">
<path d="M14.6931 0.311C13.813 0.114663 12.9148 0.0104352 12.0131 0C11.0904 0.0106667 10.1891 0.114333 9.30909 0.311C9.12102 0.352609 8.95075 0.452198 8.8223 0.595727C8.69384 0.739256 8.61367 0.919484 8.59309 1.111L8.38409 2.988C8.35413 3.25275 8.26261 3.50681 8.11686 3.72984C7.97111 3.95288 7.77517 4.1387 7.54473 4.27244C7.31429 4.40618 7.05574 4.48411 6.78978 4.50001C6.52382 4.51591 6.25782 4.46933 6.01309 4.364L4.29309 3.607C4.11851 3.53014 3.92435 3.50945 3.73749 3.54779C3.55063 3.58613 3.3803 3.6816 3.25009 3.821C2.00617 5.15208 1.07999 6.74769 0.541091 8.488C0.483711 8.67117 0.485061 8.86771 0.544954 9.05008C0.604847 9.23244 0.720282 9.39151 0.875091 9.505L2.40209 10.63C2.61706 10.7879 2.79185 10.9942 2.91232 11.2322C3.03279 11.4702 3.09556 11.7332 3.09556 12C3.09556 12.2668 3.03279 12.5298 2.91232 12.7678C2.79185 13.0058 2.61706 13.2121 2.40209 13.37L0.875091 14.498C0.720482 14.6114 0.605176 14.7703 0.545293 14.9525C0.485409 15.1346 0.48394 15.331 0.541091 15.514C1.07999 17.2554 2.00536 18.8524 3.24809 20.186C3.37819 20.3256 3.54845 20.4212 3.73532 20.4598C3.92219 20.4983 4.11641 20.4777 4.29109 20.401L6.01909 19.642C6.26251 19.5362 6.52731 19.4889 6.7923 19.5038C7.05729 19.5188 7.3151 19.5955 7.54509 19.728C8.01109 19.998 8.32209 20.473 8.38309 21.009L8.59109 22.886C8.61156 23.0749 8.69004 23.2529 8.81574 23.3954C8.94144 23.538 9.1082 23.6381 9.29309 23.682C11.0726 24.1051 12.9266 24.1051 14.7061 23.682C14.891 23.6381 15.0577 23.538 15.1834 23.3954C15.3091 23.2529 15.3876 23.0749 15.4081 22.886L15.6161 21.006C15.6443 20.7411 15.7346 20.4866 15.8798 20.2632C16.0249 20.0397 16.2207 19.8537 16.4512 19.7202C16.6818 19.5867 16.9406 19.5095 17.2066 19.4949C17.4726 19.4802 17.7383 19.5286 17.9821 19.636L19.7091 20.395C19.8838 20.4717 20.078 20.4923 20.2649 20.4538C20.4517 20.4152 20.622 20.3196 20.7521 20.18C21.9942 18.8479 22.9195 17.2526 23.4591 15.513C23.5165 15.3298 23.5151 15.1333 23.4552 14.9509C23.3953 14.7686 23.2799 14.6095 23.1251 14.496L21.6001 13.37C21.3851 13.2121 21.2102 13.0059 21.0896 12.7679C20.9691 12.53 20.9062 12.267 20.9061 12.0003C20.906 11.7335 20.9687 11.4705 21.0891 11.2324C21.2095 10.9944 21.3842 10.788 21.5991 10.63L23.1241 9.503C23.2785 9.38945 23.3936 9.23049 23.4533 9.04834C23.513 8.86619 23.5143 8.66994 23.4571 8.487C22.9185 6.74678 21.9926 5.15118 20.7491 3.82C20.6189 3.6806 20.4486 3.58513 20.2617 3.54679C20.0748 3.50845 19.8807 3.52914 19.7061 3.606L17.9861 4.363C17.7718 4.45732 17.5403 4.50635 17.3061 4.507C16.8871 4.50645 16.4831 4.3512 16.1716 4.07105C15.86 3.79089 15.6629 3.40556 15.6181 2.989L15.4081 1.11C15.3874 0.918931 15.3075 0.739124 15.1794 0.595823C15.0514 0.452521 14.8806 0.35292 14.6931 0.311ZM12.0001 16C10.9392 16 9.92181 15.5786 9.17166 14.8284C8.42152 14.0783 8.00009 13.0609 8.00009 12C8.00009 10.9391 8.42152 9.92172 9.17166 9.17157C9.92181 8.42143 10.9392 8 12.0001 8C13.061 8 14.0784 8.42143 14.8285 9.17157C15.5787 9.92172 16.0001 10.9391 16.0001 12C16.0001 13.0609 15.5787 14.0783 14.8285 14.8284C14.0784 15.5786 13.061 16 12.0001 16Z" fill="#6B7280"/>
</svg>
